<mxfile host="Electron" agent="Mozilla/5.0 (Windows NT 10.0; Win64; x64) AppleWebKit/537.36 (KHTML, like Gecko) draw.io/24.7.17 Chrome/128.0.6613.36 Electron/32.0.1 Safari/537.36" version="24.7.17">
  <diagram name="Side-1" id="XNqwvjINnnKYF0BMImKH">
    <mxGraphModel dx="1126" dy="946" grid="1" gridSize="10" guides="1" tooltips="1" connect="1" arrows="1" fold="1" page="1" pageScale="1" pageWidth="827" pageHeight="1169" math="0" shadow="0">
      <root>
        <mxCell id="0" />
        <mxCell id="1" parent="0" />
        <mxCell id="i4TxU1IBVAhbJ-KxuAWe-100" value="1" style="ellipse;whiteSpace=wrap;html=1;aspect=fixed;strokeColor=#6c8ebf;fillColor=#dae8fc;" vertex="1" parent="1">
          <mxGeometry x="140" y="200" width="40" height="40" as="geometry" />
        </mxCell>
        <mxCell id="i4TxU1IBVAhbJ-KxuAWe-99" value="1" style="ellipse;whiteSpace=wrap;html=1;aspect=fixed;strokeColor=#6c8ebf;fillColor=#dae8fc;" vertex="1" parent="1">
          <mxGeometry x="80" y="140" width="40" height="40" as="geometry" />
        </mxCell>
        <mxCell id="i4TxU1IBVAhbJ-KxuAWe-98" value="1" style="ellipse;whiteSpace=wrap;html=1;aspect=fixed;strokeColor=#6c8ebf;fillColor=#dae8fc;" vertex="1" parent="1">
          <mxGeometry x="200" y="140" width="40" height="40" as="geometry" />
        </mxCell>
        <mxCell id="i4TxU1IBVAhbJ-KxuAWe-94" value="1" style="ellipse;whiteSpace=wrap;html=1;aspect=fixed;strokeColor=#6c8ebf;fillColor=#dae8fc;" vertex="1" parent="1">
          <mxGeometry x="180" y="100" width="40" height="40" as="geometry" />
        </mxCell>
        <mxCell id="i4TxU1IBVAhbJ-KxuAWe-1" value="3" style="ellipse;whiteSpace=wrap;html=1;aspect=fixed;fillColor=#fff2cc;strokeColor=#d6b656;" vertex="1" parent="1">
          <mxGeometry x="40" y="120" width="40" height="40" as="geometry" />
        </mxCell>
        <mxCell id="i4TxU1IBVAhbJ-KxuAWe-18" style="rounded=0;orthogonalLoop=1;jettySize=auto;html=1;endArrow=none;endFill=0;" edge="1" parent="1" source="i4TxU1IBVAhbJ-KxuAWe-86" target="i4TxU1IBVAhbJ-KxuAWe-8">
          <mxGeometry relative="1" as="geometry" />
        </mxCell>
        <mxCell id="i4TxU1IBVAhbJ-KxuAWe-3" value="3" style="ellipse;whiteSpace=wrap;html=1;aspect=fixed;fillColor=#fff2cc;strokeColor=#d6b656;" vertex="1" parent="1">
          <mxGeometry x="40" y="240" width="40" height="40" as="geometry" />
        </mxCell>
        <mxCell id="i4TxU1IBVAhbJ-KxuAWe-4" value="3" style="ellipse;whiteSpace=wrap;html=1;aspect=fixed;fillColor=#fff2cc;strokeColor=#d6b656;" vertex="1" parent="1">
          <mxGeometry x="160" y="240" width="40" height="40" as="geometry" />
        </mxCell>
        <mxCell id="i4TxU1IBVAhbJ-KxuAWe-21" style="edgeStyle=orthogonalEdgeStyle;rounded=0;orthogonalLoop=1;jettySize=auto;html=1;endArrow=none;endFill=0;strokeColor=#808080;" edge="1" parent="1" source="i4TxU1IBVAhbJ-KxuAWe-76" target="i4TxU1IBVAhbJ-KxuAWe-8">
          <mxGeometry relative="1" as="geometry" />
        </mxCell>
        <mxCell id="i4TxU1IBVAhbJ-KxuAWe-6" value="3" style="ellipse;whiteSpace=wrap;html=1;aspect=fixed;strokeColor=#d6b656;fillColor=#fff2cc;" vertex="1" parent="1">
          <mxGeometry x="120" y="40" width="40" height="40" as="geometry" />
        </mxCell>
        <mxCell id="i4TxU1IBVAhbJ-KxuAWe-7" value="3" style="ellipse;whiteSpace=wrap;html=1;aspect=fixed;strokeColor=#d6b656;fillColor=#fff2cc;" vertex="1" parent="1">
          <mxGeometry x="240" y="40" width="40" height="40" as="geometry" />
        </mxCell>
        <mxCell id="i4TxU1IBVAhbJ-KxuAWe-8" value="3" style="ellipse;whiteSpace=wrap;html=1;aspect=fixed;strokeColor=#d6b656;fillColor=#fff2cc;" vertex="1" parent="1">
          <mxGeometry x="120" y="160" width="40" height="40" as="geometry" />
        </mxCell>
        <mxCell id="i4TxU1IBVAhbJ-KxuAWe-9" value="3" style="ellipse;whiteSpace=wrap;html=1;aspect=fixed;strokeColor=#d6b656;fillColor=#fff2cc;" vertex="1" parent="1">
          <mxGeometry x="240" y="160" width="40" height="40" as="geometry" />
        </mxCell>
        <mxCell id="i4TxU1IBVAhbJ-KxuAWe-77" value="2" style="ellipse;whiteSpace=wrap;html=1;aspect=fixed;strokeColor=#82b366;fillColor=#d5e8d4;" vertex="1" parent="1">
          <mxGeometry x="180" y="40" width="40" height="40" as="geometry" />
        </mxCell>
        <mxCell id="i4TxU1IBVAhbJ-KxuAWe-76" value="2" style="ellipse;whiteSpace=wrap;html=1;aspect=fixed;strokeColor=#82b366;fillColor=#d5e8d4;" vertex="1" parent="1">
          <mxGeometry x="120" y="100" width="40" height="40" as="geometry" />
        </mxCell>
        <mxCell id="i4TxU1IBVAhbJ-KxuAWe-75" value="2" style="ellipse;whiteSpace=wrap;html=1;aspect=fixed;strokeColor=#82b366;fillColor=#d5e8d4;" vertex="1" parent="1">
          <mxGeometry x="240" y="100" width="40" height="40" as="geometry" />
        </mxCell>
        <mxCell id="i4TxU1IBVAhbJ-KxuAWe-47" value="2" style="ellipse;whiteSpace=wrap;html=1;aspect=fixed;strokeColor=#82b366;fillColor=#d5e8d4;" vertex="1" parent="1">
          <mxGeometry x="180" y="160" width="40" height="40" as="geometry" />
        </mxCell>
        <mxCell id="i4TxU1IBVAhbJ-KxuAWe-82" value="2" style="ellipse;whiteSpace=wrap;html=1;aspect=fixed;strokeColor=#82b366;fillColor=#d5e8d4;" vertex="1" parent="1">
          <mxGeometry x="80" y="80" width="40" height="40" as="geometry" />
        </mxCell>
        <mxCell id="i4TxU1IBVAhbJ-KxuAWe-84" value="2" style="ellipse;whiteSpace=wrap;html=1;aspect=fixed;strokeColor=#82b366;fillColor=#d5e8d4;" vertex="1" parent="1">
          <mxGeometry x="200" y="80" width="40" height="40" as="geometry" />
        </mxCell>
        <mxCell id="i4TxU1IBVAhbJ-KxuAWe-85" value="2" style="ellipse;whiteSpace=wrap;html=1;aspect=fixed;strokeColor=#82b366;fillColor=#d5e8d4;" vertex="1" parent="1">
          <mxGeometry x="200" y="200" width="40" height="40" as="geometry" />
        </mxCell>
        <mxCell id="i4TxU1IBVAhbJ-KxuAWe-86" value="2" style="ellipse;whiteSpace=wrap;html=1;aspect=fixed;strokeColor=#82b366;fillColor=#d5e8d4;" vertex="1" parent="1">
          <mxGeometry x="80" y="200" width="40" height="40" as="geometry" />
        </mxCell>
        <mxCell id="i4TxU1IBVAhbJ-KxuAWe-91" value="2" style="ellipse;whiteSpace=wrap;html=1;aspect=fixed;strokeColor=#82b366;fillColor=#d5e8d4;" vertex="1" parent="1">
          <mxGeometry x="110" y="120" width="40" height="40" as="geometry" />
        </mxCell>
        <mxCell id="i4TxU1IBVAhbJ-KxuAWe-90" value="2" style="ellipse;whiteSpace=wrap;html=1;aspect=fixed;strokeColor=#82b366;fillColor=#d5e8d4;" vertex="1" parent="1">
          <mxGeometry x="40" y="180" width="40" height="40" as="geometry" />
        </mxCell>
        <mxCell id="i4TxU1IBVAhbJ-KxuAWe-89" value="2" style="ellipse;whiteSpace=wrap;html=1;aspect=fixed;strokeColor=#82b366;fillColor=#d5e8d4;" vertex="1" parent="1">
          <mxGeometry x="160" y="180" width="40" height="40" as="geometry" />
        </mxCell>
        <mxCell id="i4TxU1IBVAhbJ-KxuAWe-88" value="2" style="ellipse;whiteSpace=wrap;html=1;aspect=fixed;strokeColor=#82b366;fillColor=#d5e8d4;" vertex="1" parent="1">
          <mxGeometry x="110" y="240" width="40" height="40" as="geometry" />
        </mxCell>
        <mxCell id="i4TxU1IBVAhbJ-KxuAWe-95" value="" style="rounded=0;orthogonalLoop=1;jettySize=auto;html=1;endArrow=none;endFill=0;" edge="1" parent="1" source="i4TxU1IBVAhbJ-KxuAWe-5" target="i4TxU1IBVAhbJ-KxuAWe-94">
          <mxGeometry relative="1" as="geometry">
            <mxPoint x="234" y="166" as="sourcePoint" />
            <mxPoint x="286" y="114" as="targetPoint" />
          </mxGeometry>
        </mxCell>
        <mxCell id="i4TxU1IBVAhbJ-KxuAWe-5" value="3" style="ellipse;whiteSpace=wrap;html=1;aspect=fixed;fillColor=#fff2cc;strokeColor=#d6b656;" vertex="1" parent="1">
          <mxGeometry x="160" y="120" width="40" height="40" as="geometry" />
        </mxCell>
        <mxCell id="i4TxU1IBVAhbJ-KxuAWe-96" value="1" style="ellipse;whiteSpace=wrap;html=1;aspect=fixed;strokeColor=#6c8ebf;fillColor=#dae8fc;" vertex="1" parent="1">
          <mxGeometry x="140" y="80" width="40" height="40" as="geometry" />
        </mxCell>
        <mxCell id="i4TxU1IBVAhbJ-KxuAWe-93" value="1" style="ellipse;whiteSpace=wrap;html=1;aspect=fixed;strokeColor=#6c8ebf;fillColor=#dae8fc;" vertex="1" parent="1">
          <mxGeometry x="100" y="180" width="40" height="40" as="geometry" />
        </mxCell>
        <mxCell id="i4TxU1IBVAhbJ-KxuAWe-226" value="" style="group" vertex="1" connectable="0" parent="1">
          <mxGeometry x="400" y="320" width="240" height="240" as="geometry" />
        </mxCell>
        <mxCell id="i4TxU1IBVAhbJ-KxuAWe-155" style="rounded=0;orthogonalLoop=1;jettySize=auto;html=1;endArrow=none;endFill=0;fillColor=#d5e8d4;strokeColor=#82b366;" edge="1" parent="i4TxU1IBVAhbJ-KxuAWe-226" source="i4TxU1IBVAhbJ-KxuAWe-121" target="i4TxU1IBVAhbJ-KxuAWe-125">
          <mxGeometry relative="1" as="geometry" />
        </mxCell>
        <mxCell id="i4TxU1IBVAhbJ-KxuAWe-156" style="rounded=0;orthogonalLoop=1;jettySize=auto;html=1;endArrow=none;endFill=0;fillColor=#d5e8d4;strokeColor=#82b366;" edge="1" parent="i4TxU1IBVAhbJ-KxuAWe-226" source="i4TxU1IBVAhbJ-KxuAWe-121" target="i4TxU1IBVAhbJ-KxuAWe-122">
          <mxGeometry relative="1" as="geometry" />
        </mxCell>
        <mxCell id="i4TxU1IBVAhbJ-KxuAWe-157" style="rounded=0;orthogonalLoop=1;jettySize=auto;html=1;endArrow=none;endFill=0;fillColor=#d5e8d4;strokeColor=#82b366;" edge="1" parent="i4TxU1IBVAhbJ-KxuAWe-226" source="i4TxU1IBVAhbJ-KxuAWe-121" target="i4TxU1IBVAhbJ-KxuAWe-126">
          <mxGeometry relative="1" as="geometry" />
        </mxCell>
        <mxCell id="i4TxU1IBVAhbJ-KxuAWe-158" style="rounded=0;orthogonalLoop=1;jettySize=auto;html=1;endArrow=none;endFill=0;fillColor=#d5e8d4;strokeColor=#82b366;" edge="1" parent="i4TxU1IBVAhbJ-KxuAWe-226" source="i4TxU1IBVAhbJ-KxuAWe-121" target="i4TxU1IBVAhbJ-KxuAWe-123">
          <mxGeometry relative="1" as="geometry" />
        </mxCell>
        <mxCell id="i4TxU1IBVAhbJ-KxuAWe-121" value="2" style="ellipse;whiteSpace=wrap;html=1;aspect=fixed;strokeColor=#82b366;fillColor=#d5e8d4;" vertex="1" parent="i4TxU1IBVAhbJ-KxuAWe-226">
          <mxGeometry x="140" width="40" height="40" as="geometry" />
        </mxCell>
        <mxCell id="i4TxU1IBVAhbJ-KxuAWe-167" style="rounded=0;orthogonalLoop=1;jettySize=auto;html=1;endArrow=none;endFill=0;fillColor=#d5e8d4;strokeColor=#82b366;" edge="1" parent="i4TxU1IBVAhbJ-KxuAWe-226" source="i4TxU1IBVAhbJ-KxuAWe-122" target="i4TxU1IBVAhbJ-KxuAWe-124">
          <mxGeometry relative="1" as="geometry" />
        </mxCell>
        <mxCell id="i4TxU1IBVAhbJ-KxuAWe-168" style="rounded=0;orthogonalLoop=1;jettySize=auto;html=1;endArrow=none;endFill=0;fillColor=#d5e8d4;strokeColor=#82b366;" edge="1" parent="i4TxU1IBVAhbJ-KxuAWe-226" source="i4TxU1IBVAhbJ-KxuAWe-122" target="i4TxU1IBVAhbJ-KxuAWe-130">
          <mxGeometry relative="1" as="geometry" />
        </mxCell>
        <mxCell id="i4TxU1IBVAhbJ-KxuAWe-122" value="2" style="ellipse;whiteSpace=wrap;html=1;aspect=fixed;strokeColor=#82b366;fillColor=#d5e8d4;" vertex="1" parent="i4TxU1IBVAhbJ-KxuAWe-226">
          <mxGeometry x="80" y="60" width="40" height="40" as="geometry" />
        </mxCell>
        <mxCell id="i4TxU1IBVAhbJ-KxuAWe-173" style="rounded=0;orthogonalLoop=1;jettySize=auto;html=1;endArrow=none;endFill=0;fillColor=#d5e8d4;strokeColor=#82b366;" edge="1" parent="i4TxU1IBVAhbJ-KxuAWe-226" source="i4TxU1IBVAhbJ-KxuAWe-123" target="i4TxU1IBVAhbJ-KxuAWe-124">
          <mxGeometry relative="1" as="geometry" />
        </mxCell>
        <mxCell id="i4TxU1IBVAhbJ-KxuAWe-174" style="rounded=0;orthogonalLoop=1;jettySize=auto;html=1;endArrow=none;endFill=0;fillColor=#d5e8d4;strokeColor=#82b366;" edge="1" parent="i4TxU1IBVAhbJ-KxuAWe-226" source="i4TxU1IBVAhbJ-KxuAWe-123" target="i4TxU1IBVAhbJ-KxuAWe-127">
          <mxGeometry relative="1" as="geometry" />
        </mxCell>
        <mxCell id="i4TxU1IBVAhbJ-KxuAWe-123" value="2" style="ellipse;whiteSpace=wrap;html=1;aspect=fixed;strokeColor=#82b366;fillColor=#d5e8d4;" vertex="1" parent="i4TxU1IBVAhbJ-KxuAWe-226">
          <mxGeometry x="200" y="60" width="40" height="40" as="geometry" />
        </mxCell>
        <mxCell id="i4TxU1IBVAhbJ-KxuAWe-175" style="rounded=0;orthogonalLoop=1;jettySize=auto;html=1;endArrow=none;endFill=0;fillColor=#d5e8d4;strokeColor=#82b366;" edge="1" parent="i4TxU1IBVAhbJ-KxuAWe-226" source="i4TxU1IBVAhbJ-KxuAWe-124" target="i4TxU1IBVAhbJ-KxuAWe-127">
          <mxGeometry relative="1" as="geometry" />
        </mxCell>
        <mxCell id="i4TxU1IBVAhbJ-KxuAWe-124" value="2" style="ellipse;whiteSpace=wrap;html=1;aspect=fixed;strokeColor=#82b366;fillColor=#d5e8d4;" vertex="1" parent="i4TxU1IBVAhbJ-KxuAWe-226">
          <mxGeometry x="140" y="120" width="40" height="40" as="geometry" />
        </mxCell>
        <mxCell id="i4TxU1IBVAhbJ-KxuAWe-159" style="rounded=0;orthogonalLoop=1;jettySize=auto;html=1;endArrow=none;endFill=0;fillColor=#d5e8d4;strokeColor=#82b366;" edge="1" parent="i4TxU1IBVAhbJ-KxuAWe-226" source="i4TxU1IBVAhbJ-KxuAWe-125" target="i4TxU1IBVAhbJ-KxuAWe-129">
          <mxGeometry relative="1" as="geometry" />
        </mxCell>
        <mxCell id="i4TxU1IBVAhbJ-KxuAWe-160" style="rounded=0;orthogonalLoop=1;jettySize=auto;html=1;endArrow=none;endFill=0;fillColor=#d5e8d4;strokeColor=#82b366;" edge="1" parent="i4TxU1IBVAhbJ-KxuAWe-226" source="i4TxU1IBVAhbJ-KxuAWe-125" target="i4TxU1IBVAhbJ-KxuAWe-130">
          <mxGeometry relative="1" as="geometry" />
        </mxCell>
        <mxCell id="i4TxU1IBVAhbJ-KxuAWe-161" style="rounded=0;orthogonalLoop=1;jettySize=auto;html=1;endArrow=none;endFill=0;fillColor=#d5e8d4;strokeColor=#82b366;" edge="1" parent="i4TxU1IBVAhbJ-KxuAWe-226" source="i4TxU1IBVAhbJ-KxuAWe-125" target="i4TxU1IBVAhbJ-KxuAWe-122">
          <mxGeometry relative="1" as="geometry" />
        </mxCell>
        <mxCell id="i4TxU1IBVAhbJ-KxuAWe-125" value="2" style="ellipse;whiteSpace=wrap;html=1;aspect=fixed;strokeColor=#82b366;fillColor=#d5e8d4;" vertex="1" parent="i4TxU1IBVAhbJ-KxuAWe-226">
          <mxGeometry x="40" y="40" width="40" height="40" as="geometry" />
        </mxCell>
        <mxCell id="i4TxU1IBVAhbJ-KxuAWe-162" style="rounded=0;orthogonalLoop=1;jettySize=auto;html=1;endArrow=none;endFill=0;fillColor=#d5e8d4;strokeColor=#82b366;" edge="1" parent="i4TxU1IBVAhbJ-KxuAWe-226" source="i4TxU1IBVAhbJ-KxuAWe-126" target="i4TxU1IBVAhbJ-KxuAWe-129">
          <mxGeometry relative="1" as="geometry" />
        </mxCell>
        <mxCell id="i4TxU1IBVAhbJ-KxuAWe-163" style="rounded=0;orthogonalLoop=1;jettySize=auto;html=1;endArrow=none;endFill=0;fillColor=#d5e8d4;strokeColor=#82b366;" edge="1" parent="i4TxU1IBVAhbJ-KxuAWe-226" source="i4TxU1IBVAhbJ-KxuAWe-126" target="i4TxU1IBVAhbJ-KxuAWe-131">
          <mxGeometry relative="1" as="geometry" />
        </mxCell>
        <mxCell id="i4TxU1IBVAhbJ-KxuAWe-164" style="rounded=0;orthogonalLoop=1;jettySize=auto;html=1;endArrow=none;endFill=0;fillColor=#d5e8d4;strokeColor=#82b366;" edge="1" parent="i4TxU1IBVAhbJ-KxuAWe-226" source="i4TxU1IBVAhbJ-KxuAWe-126" target="i4TxU1IBVAhbJ-KxuAWe-123">
          <mxGeometry relative="1" as="geometry" />
        </mxCell>
        <mxCell id="i4TxU1IBVAhbJ-KxuAWe-126" value="2" style="ellipse;whiteSpace=wrap;html=1;aspect=fixed;strokeColor=#82b366;fillColor=#d5e8d4;" vertex="1" parent="i4TxU1IBVAhbJ-KxuAWe-226">
          <mxGeometry x="160" y="40" width="40" height="40" as="geometry" />
        </mxCell>
        <mxCell id="i4TxU1IBVAhbJ-KxuAWe-176" style="rounded=0;orthogonalLoop=1;jettySize=auto;html=1;endArrow=none;endFill=0;fillColor=#d5e8d4;strokeColor=#82b366;" edge="1" parent="i4TxU1IBVAhbJ-KxuAWe-226" source="i4TxU1IBVAhbJ-KxuAWe-127" target="i4TxU1IBVAhbJ-KxuAWe-131">
          <mxGeometry relative="1" as="geometry" />
        </mxCell>
        <mxCell id="i4TxU1IBVAhbJ-KxuAWe-177" style="rounded=0;orthogonalLoop=1;jettySize=auto;html=1;endArrow=none;endFill=0;fillColor=#d5e8d4;strokeColor=#82b366;" edge="1" parent="i4TxU1IBVAhbJ-KxuAWe-226" source="i4TxU1IBVAhbJ-KxuAWe-127" target="i4TxU1IBVAhbJ-KxuAWe-132">
          <mxGeometry relative="1" as="geometry" />
        </mxCell>
        <mxCell id="i4TxU1IBVAhbJ-KxuAWe-127" value="2" style="ellipse;whiteSpace=wrap;html=1;aspect=fixed;strokeColor=#82b366;fillColor=#d5e8d4;" vertex="1" parent="i4TxU1IBVAhbJ-KxuAWe-226">
          <mxGeometry x="160" y="160" width="40" height="40" as="geometry" />
        </mxCell>
        <mxCell id="i4TxU1IBVAhbJ-KxuAWe-169" style="rounded=0;orthogonalLoop=1;jettySize=auto;html=1;endArrow=none;endFill=0;fillColor=#d5e8d4;strokeColor=#82b366;" edge="1" parent="i4TxU1IBVAhbJ-KxuAWe-226" source="i4TxU1IBVAhbJ-KxuAWe-128" target="i4TxU1IBVAhbJ-KxuAWe-130">
          <mxGeometry relative="1" as="geometry" />
        </mxCell>
        <mxCell id="i4TxU1IBVAhbJ-KxuAWe-170" style="rounded=0;orthogonalLoop=1;jettySize=auto;html=1;endArrow=none;endFill=0;fillColor=#d5e8d4;strokeColor=#82b366;" edge="1" parent="i4TxU1IBVAhbJ-KxuAWe-226" source="i4TxU1IBVAhbJ-KxuAWe-128" target="i4TxU1IBVAhbJ-KxuAWe-122">
          <mxGeometry relative="1" as="geometry" />
        </mxCell>
        <mxCell id="i4TxU1IBVAhbJ-KxuAWe-171" style="rounded=0;orthogonalLoop=1;jettySize=auto;html=1;endArrow=none;endFill=0;fillColor=#d5e8d4;strokeColor=#82b366;" edge="1" parent="i4TxU1IBVAhbJ-KxuAWe-226" source="i4TxU1IBVAhbJ-KxuAWe-128" target="i4TxU1IBVAhbJ-KxuAWe-124">
          <mxGeometry relative="1" as="geometry" />
        </mxCell>
        <mxCell id="i4TxU1IBVAhbJ-KxuAWe-172" style="rounded=0;orthogonalLoop=1;jettySize=auto;html=1;endArrow=none;endFill=0;fillColor=#d5e8d4;strokeColor=#82b366;" edge="1" parent="i4TxU1IBVAhbJ-KxuAWe-226" source="i4TxU1IBVAhbJ-KxuAWe-128" target="i4TxU1IBVAhbJ-KxuAWe-132">
          <mxGeometry relative="1" as="geometry" />
        </mxCell>
        <mxCell id="i4TxU1IBVAhbJ-KxuAWe-128" value="2" style="ellipse;whiteSpace=wrap;html=1;aspect=fixed;strokeColor=#82b366;fillColor=#d5e8d4;" vertex="1" parent="i4TxU1IBVAhbJ-KxuAWe-226">
          <mxGeometry x="40" y="160" width="40" height="40" as="geometry" />
        </mxCell>
        <mxCell id="i4TxU1IBVAhbJ-KxuAWe-165" style="rounded=0;orthogonalLoop=1;jettySize=auto;html=1;endArrow=none;endFill=0;fillColor=#d5e8d4;strokeColor=#82b366;" edge="1" parent="i4TxU1IBVAhbJ-KxuAWe-226" source="i4TxU1IBVAhbJ-KxuAWe-129" target="i4TxU1IBVAhbJ-KxuAWe-130">
          <mxGeometry relative="1" as="geometry" />
        </mxCell>
        <mxCell id="i4TxU1IBVAhbJ-KxuAWe-166" style="rounded=0;orthogonalLoop=1;jettySize=auto;html=1;endArrow=none;endFill=0;fillColor=#d5e8d4;strokeColor=#82b366;" edge="1" parent="i4TxU1IBVAhbJ-KxuAWe-226" source="i4TxU1IBVAhbJ-KxuAWe-129" target="i4TxU1IBVAhbJ-KxuAWe-131">
          <mxGeometry relative="1" as="geometry" />
        </mxCell>
        <mxCell id="i4TxU1IBVAhbJ-KxuAWe-129" value="2" style="ellipse;whiteSpace=wrap;html=1;aspect=fixed;strokeColor=#82b366;fillColor=#d5e8d4;" vertex="1" parent="i4TxU1IBVAhbJ-KxuAWe-226">
          <mxGeometry x="70" y="80" width="40" height="40" as="geometry" />
        </mxCell>
        <mxCell id="i4TxU1IBVAhbJ-KxuAWe-130" value="2" style="ellipse;whiteSpace=wrap;html=1;aspect=fixed;strokeColor=#82b366;fillColor=#d5e8d4;" vertex="1" parent="i4TxU1IBVAhbJ-KxuAWe-226">
          <mxGeometry y="140" width="40" height="40" as="geometry" />
        </mxCell>
        <mxCell id="i4TxU1IBVAhbJ-KxuAWe-131" value="2" style="ellipse;whiteSpace=wrap;html=1;aspect=fixed;strokeColor=#82b366;fillColor=#d5e8d4;" vertex="1" parent="i4TxU1IBVAhbJ-KxuAWe-226">
          <mxGeometry x="120" y="140" width="40" height="40" as="geometry" />
        </mxCell>
        <mxCell id="i4TxU1IBVAhbJ-KxuAWe-178" style="rounded=0;orthogonalLoop=1;jettySize=auto;html=1;endArrow=none;endFill=0;fillColor=#d5e8d4;strokeColor=#82b366;" edge="1" parent="i4TxU1IBVAhbJ-KxuAWe-226" source="i4TxU1IBVAhbJ-KxuAWe-132" target="i4TxU1IBVAhbJ-KxuAWe-131">
          <mxGeometry relative="1" as="geometry" />
        </mxCell>
        <mxCell id="i4TxU1IBVAhbJ-KxuAWe-179" style="rounded=0;orthogonalLoop=1;jettySize=auto;html=1;endArrow=none;endFill=0;fillColor=#d5e8d4;strokeColor=#82b366;" edge="1" parent="i4TxU1IBVAhbJ-KxuAWe-226" source="i4TxU1IBVAhbJ-KxuAWe-132" target="i4TxU1IBVAhbJ-KxuAWe-130">
          <mxGeometry relative="1" as="geometry" />
        </mxCell>
        <mxCell id="i4TxU1IBVAhbJ-KxuAWe-132" value="2" style="ellipse;whiteSpace=wrap;html=1;aspect=fixed;strokeColor=#82b366;fillColor=#d5e8d4;" vertex="1" parent="i4TxU1IBVAhbJ-KxuAWe-226">
          <mxGeometry x="70" y="200" width="40" height="40" as="geometry" />
        </mxCell>
        <mxCell id="i4TxU1IBVAhbJ-KxuAWe-265" value="" style="group" vertex="1" connectable="0" parent="1">
          <mxGeometry x="80" y="360" width="160" height="160" as="geometry" />
        </mxCell>
        <mxCell id="i4TxU1IBVAhbJ-KxuAWe-101" value="1" style="ellipse;whiteSpace=wrap;html=1;aspect=fixed;strokeColor=#6c8ebf;fillColor=#dae8fc;" vertex="1" parent="i4TxU1IBVAhbJ-KxuAWe-265">
          <mxGeometry x="60" y="120" width="40" height="40" as="geometry" />
        </mxCell>
        <mxCell id="i4TxU1IBVAhbJ-KxuAWe-108" style="edgeStyle=orthogonalEdgeStyle;rounded=0;orthogonalLoop=1;jettySize=auto;html=1;endArrow=none;endFill=0;strokeColor=#6c8ebf;fillColor=#dae8fc;" edge="1" parent="i4TxU1IBVAhbJ-KxuAWe-265" source="i4TxU1IBVAhbJ-KxuAWe-102" target="i4TxU1IBVAhbJ-KxuAWe-103">
          <mxGeometry relative="1" as="geometry" />
        </mxCell>
        <mxCell id="i4TxU1IBVAhbJ-KxuAWe-102" value="1" style="ellipse;whiteSpace=wrap;html=1;aspect=fixed;strokeColor=#6c8ebf;fillColor=#dae8fc;" vertex="1" parent="i4TxU1IBVAhbJ-KxuAWe-265">
          <mxGeometry y="60" width="40" height="40" as="geometry" />
        </mxCell>
        <mxCell id="i4TxU1IBVAhbJ-KxuAWe-103" value="1" style="ellipse;whiteSpace=wrap;html=1;aspect=fixed;strokeColor=#6c8ebf;fillColor=#dae8fc;" vertex="1" parent="i4TxU1IBVAhbJ-KxuAWe-265">
          <mxGeometry x="120" y="60" width="40" height="40" as="geometry" />
        </mxCell>
        <mxCell id="i4TxU1IBVAhbJ-KxuAWe-104" value="1" style="ellipse;whiteSpace=wrap;html=1;aspect=fixed;strokeColor=#6c8ebf;fillColor=#dae8fc;" vertex="1" parent="i4TxU1IBVAhbJ-KxuAWe-265">
          <mxGeometry x="100" y="20" width="40" height="40" as="geometry" />
        </mxCell>
        <mxCell id="i4TxU1IBVAhbJ-KxuAWe-109" style="edgeStyle=orthogonalEdgeStyle;rounded=0;orthogonalLoop=1;jettySize=auto;html=1;endArrow=none;endFill=0;strokeColor=#6c8ebf;fillColor=#dae8fc;" edge="1" parent="i4TxU1IBVAhbJ-KxuAWe-265" source="i4TxU1IBVAhbJ-KxuAWe-105" target="i4TxU1IBVAhbJ-KxuAWe-101">
          <mxGeometry relative="1" as="geometry" />
        </mxCell>
        <mxCell id="i4TxU1IBVAhbJ-KxuAWe-105" value="1" style="ellipse;whiteSpace=wrap;html=1;aspect=fixed;strokeColor=#6c8ebf;fillColor=#dae8fc;" vertex="1" parent="i4TxU1IBVAhbJ-KxuAWe-265">
          <mxGeometry x="60" width="40" height="40" as="geometry" />
        </mxCell>
        <mxCell id="i4TxU1IBVAhbJ-KxuAWe-107" style="rounded=0;orthogonalLoop=1;jettySize=auto;html=1;endArrow=none;endFill=0;strokeColor=#6c8ebf;fillColor=#dae8fc;" edge="1" parent="i4TxU1IBVAhbJ-KxuAWe-265" source="i4TxU1IBVAhbJ-KxuAWe-106" target="i4TxU1IBVAhbJ-KxuAWe-104">
          <mxGeometry relative="1" as="geometry" />
        </mxCell>
        <mxCell id="i4TxU1IBVAhbJ-KxuAWe-106" value="1" style="ellipse;whiteSpace=wrap;html=1;aspect=fixed;strokeColor=#6c8ebf;fillColor=#dae8fc;" vertex="1" parent="i4TxU1IBVAhbJ-KxuAWe-265">
          <mxGeometry x="20" y="100" width="40" height="40" as="geometry" />
        </mxCell>
        <mxCell id="i4TxU1IBVAhbJ-KxuAWe-266" value="" style="group" vertex="1" connectable="0" parent="1">
          <mxGeometry x="80" y="640" width="190" height="210" as="geometry" />
        </mxCell>
        <mxCell id="i4TxU1IBVAhbJ-KxuAWe-180" value="1" style="ellipse;whiteSpace=wrap;html=1;aspect=fixed;strokeColor=#6c8ebf;fillColor=#dae8fc;" vertex="1" parent="i4TxU1IBVAhbJ-KxuAWe-266">
          <mxGeometry x="60" y="120" width="40" height="40" as="geometry" />
        </mxCell>
        <mxCell id="i4TxU1IBVAhbJ-KxuAWe-181" style="edgeStyle=orthogonalEdgeStyle;rounded=0;orthogonalLoop=1;jettySize=auto;html=1;endArrow=none;endFill=0;strokeColor=#6c8ebf;fillColor=#dae8fc;" edge="1" parent="i4TxU1IBVAhbJ-KxuAWe-266" source="i4TxU1IBVAhbJ-KxuAWe-182" target="i4TxU1IBVAhbJ-KxuAWe-183">
          <mxGeometry relative="1" as="geometry" />
        </mxCell>
        <mxCell id="i4TxU1IBVAhbJ-KxuAWe-182" value="1" style="ellipse;whiteSpace=wrap;html=1;aspect=fixed;strokeColor=#6c8ebf;fillColor=#dae8fc;" vertex="1" parent="i4TxU1IBVAhbJ-KxuAWe-266">
          <mxGeometry y="60" width="40" height="40" as="geometry" />
        </mxCell>
        <mxCell id="i4TxU1IBVAhbJ-KxuAWe-183" value="1" style="ellipse;whiteSpace=wrap;html=1;aspect=fixed;strokeColor=#6c8ebf;fillColor=#dae8fc;" vertex="1" parent="i4TxU1IBVAhbJ-KxuAWe-266">
          <mxGeometry x="120" y="60" width="40" height="40" as="geometry" />
        </mxCell>
        <mxCell id="i4TxU1IBVAhbJ-KxuAWe-184" value="1" style="ellipse;whiteSpace=wrap;html=1;aspect=fixed;strokeColor=#6c8ebf;fillColor=#dae8fc;" vertex="1" parent="i4TxU1IBVAhbJ-KxuAWe-266">
          <mxGeometry x="100" y="20" width="40" height="40" as="geometry" />
        </mxCell>
        <mxCell id="i4TxU1IBVAhbJ-KxuAWe-185" style="edgeStyle=orthogonalEdgeStyle;rounded=0;orthogonalLoop=1;jettySize=auto;html=1;endArrow=none;endFill=0;strokeColor=#6c8ebf;fillColor=#dae8fc;" edge="1" parent="i4TxU1IBVAhbJ-KxuAWe-266" source="i4TxU1IBVAhbJ-KxuAWe-186" target="i4TxU1IBVAhbJ-KxuAWe-180">
          <mxGeometry relative="1" as="geometry" />
        </mxCell>
        <mxCell id="i4TxU1IBVAhbJ-KxuAWe-186" value="1" style="ellipse;whiteSpace=wrap;html=1;aspect=fixed;strokeColor=#6c8ebf;fillColor=#dae8fc;" vertex="1" parent="i4TxU1IBVAhbJ-KxuAWe-266">
          <mxGeometry x="60" width="40" height="40" as="geometry" />
        </mxCell>
        <mxCell id="i4TxU1IBVAhbJ-KxuAWe-187" style="rounded=0;orthogonalLoop=1;jettySize=auto;html=1;endArrow=none;endFill=0;strokeColor=#6c8ebf;fillColor=#dae8fc;" edge="1" parent="i4TxU1IBVAhbJ-KxuAWe-266" source="i4TxU1IBVAhbJ-KxuAWe-188" target="i4TxU1IBVAhbJ-KxuAWe-184">
          <mxGeometry relative="1" as="geometry" />
        </mxCell>
        <mxCell id="i4TxU1IBVAhbJ-KxuAWe-188" value="1" style="ellipse;whiteSpace=wrap;html=1;aspect=fixed;strokeColor=#6c8ebf;fillColor=#dae8fc;" vertex="1" parent="i4TxU1IBVAhbJ-KxuAWe-266">
          <mxGeometry x="20" y="100" width="40" height="40" as="geometry" />
        </mxCell>
        <mxCell id="i4TxU1IBVAhbJ-KxuAWe-227" value="" style="group" vertex="1" connectable="0" parent="i4TxU1IBVAhbJ-KxuAWe-266">
          <mxGeometry x="-40" y="-40" width="240" height="240" as="geometry" />
        </mxCell>
        <mxCell id="i4TxU1IBVAhbJ-KxuAWe-228" style="rounded=0;orthogonalLoop=1;jettySize=auto;html=1;endArrow=none;endFill=0;fillColor=#d5e8d4;strokeColor=#82b366;" edge="1" parent="i4TxU1IBVAhbJ-KxuAWe-227" source="i4TxU1IBVAhbJ-KxuAWe-232" target="i4TxU1IBVAhbJ-KxuAWe-244">
          <mxGeometry relative="1" as="geometry" />
        </mxCell>
        <mxCell id="i4TxU1IBVAhbJ-KxuAWe-229" style="rounded=0;orthogonalLoop=1;jettySize=auto;html=1;endArrow=none;endFill=0;fillColor=#d5e8d4;strokeColor=#82b366;" edge="1" parent="i4TxU1IBVAhbJ-KxuAWe-227" source="i4TxU1IBVAhbJ-KxuAWe-232" target="i4TxU1IBVAhbJ-KxuAWe-235">
          <mxGeometry relative="1" as="geometry" />
        </mxCell>
        <mxCell id="i4TxU1IBVAhbJ-KxuAWe-230" style="rounded=0;orthogonalLoop=1;jettySize=auto;html=1;endArrow=none;endFill=0;fillColor=#d5e8d4;strokeColor=#82b366;" edge="1" parent="i4TxU1IBVAhbJ-KxuAWe-227" source="i4TxU1IBVAhbJ-KxuAWe-232" target="i4TxU1IBVAhbJ-KxuAWe-248">
          <mxGeometry relative="1" as="geometry" />
        </mxCell>
        <mxCell id="i4TxU1IBVAhbJ-KxuAWe-231" style="rounded=0;orthogonalLoop=1;jettySize=auto;html=1;endArrow=none;endFill=0;fillColor=#d5e8d4;strokeColor=#82b366;" edge="1" parent="i4TxU1IBVAhbJ-KxuAWe-227" source="i4TxU1IBVAhbJ-KxuAWe-232" target="i4TxU1IBVAhbJ-KxuAWe-238">
          <mxGeometry relative="1" as="geometry" />
        </mxCell>
        <mxCell id="i4TxU1IBVAhbJ-KxuAWe-232" value="2" style="ellipse;whiteSpace=wrap;html=1;aspect=fixed;strokeColor=#82b366;fillColor=#d5e8d4;" vertex="1" parent="i4TxU1IBVAhbJ-KxuAWe-227">
          <mxGeometry x="140" width="40" height="40" as="geometry" />
        </mxCell>
        <mxCell id="i4TxU1IBVAhbJ-KxuAWe-233" style="rounded=0;orthogonalLoop=1;jettySize=auto;html=1;endArrow=none;endFill=0;fillColor=#d5e8d4;strokeColor=#82b366;" edge="1" parent="i4TxU1IBVAhbJ-KxuAWe-227" source="i4TxU1IBVAhbJ-KxuAWe-235" target="i4TxU1IBVAhbJ-KxuAWe-240">
          <mxGeometry relative="1" as="geometry" />
        </mxCell>
        <mxCell id="i4TxU1IBVAhbJ-KxuAWe-234" style="rounded=0;orthogonalLoop=1;jettySize=auto;html=1;endArrow=none;endFill=0;fillColor=#d5e8d4;strokeColor=#82b366;" edge="1" parent="i4TxU1IBVAhbJ-KxuAWe-227" source="i4TxU1IBVAhbJ-KxuAWe-235" target="i4TxU1IBVAhbJ-KxuAWe-260">
          <mxGeometry relative="1" as="geometry" />
        </mxCell>
        <mxCell id="i4TxU1IBVAhbJ-KxuAWe-235" value="2" style="ellipse;whiteSpace=wrap;html=1;aspect=fixed;strokeColor=#82b366;fillColor=#d5e8d4;" vertex="1" parent="i4TxU1IBVAhbJ-KxuAWe-227">
          <mxGeometry x="80" y="60" width="40" height="40" as="geometry" />
        </mxCell>
        <mxCell id="i4TxU1IBVAhbJ-KxuAWe-236" style="rounded=0;orthogonalLoop=1;jettySize=auto;html=1;endArrow=none;endFill=0;fillColor=#d5e8d4;strokeColor=#82b366;" edge="1" parent="i4TxU1IBVAhbJ-KxuAWe-227" source="i4TxU1IBVAhbJ-KxuAWe-238" target="i4TxU1IBVAhbJ-KxuAWe-240">
          <mxGeometry relative="1" as="geometry" />
        </mxCell>
        <mxCell id="i4TxU1IBVAhbJ-KxuAWe-237" style="rounded=0;orthogonalLoop=1;jettySize=auto;html=1;endArrow=none;endFill=0;fillColor=#d5e8d4;strokeColor=#82b366;" edge="1" parent="i4TxU1IBVAhbJ-KxuAWe-227" source="i4TxU1IBVAhbJ-KxuAWe-238" target="i4TxU1IBVAhbJ-KxuAWe-251">
          <mxGeometry relative="1" as="geometry" />
        </mxCell>
        <mxCell id="i4TxU1IBVAhbJ-KxuAWe-238" value="2" style="ellipse;whiteSpace=wrap;html=1;aspect=fixed;strokeColor=#82b366;fillColor=#d5e8d4;" vertex="1" parent="i4TxU1IBVAhbJ-KxuAWe-227">
          <mxGeometry x="200" y="60" width="40" height="40" as="geometry" />
        </mxCell>
        <mxCell id="i4TxU1IBVAhbJ-KxuAWe-239" style="rounded=0;orthogonalLoop=1;jettySize=auto;html=1;endArrow=none;endFill=0;fillColor=#d5e8d4;strokeColor=#82b366;" edge="1" parent="i4TxU1IBVAhbJ-KxuAWe-227" source="i4TxU1IBVAhbJ-KxuAWe-240" target="i4TxU1IBVAhbJ-KxuAWe-251">
          <mxGeometry relative="1" as="geometry" />
        </mxCell>
        <mxCell id="i4TxU1IBVAhbJ-KxuAWe-240" value="2" style="ellipse;whiteSpace=wrap;html=1;aspect=fixed;strokeColor=#82b366;fillColor=#d5e8d4;" vertex="1" parent="i4TxU1IBVAhbJ-KxuAWe-227">
          <mxGeometry x="140" y="120" width="40" height="40" as="geometry" />
        </mxCell>
        <mxCell id="i4TxU1IBVAhbJ-KxuAWe-241" style="rounded=0;orthogonalLoop=1;jettySize=auto;html=1;endArrow=none;endFill=0;fillColor=#d5e8d4;strokeColor=#82b366;" edge="1" parent="i4TxU1IBVAhbJ-KxuAWe-227" source="i4TxU1IBVAhbJ-KxuAWe-244" target="i4TxU1IBVAhbJ-KxuAWe-259">
          <mxGeometry relative="1" as="geometry" />
        </mxCell>
        <mxCell id="i4TxU1IBVAhbJ-KxuAWe-242" style="rounded=0;orthogonalLoop=1;jettySize=auto;html=1;endArrow=none;endFill=0;fillColor=#d5e8d4;strokeColor=#82b366;" edge="1" parent="i4TxU1IBVAhbJ-KxuAWe-227" source="i4TxU1IBVAhbJ-KxuAWe-244" target="i4TxU1IBVAhbJ-KxuAWe-260">
          <mxGeometry relative="1" as="geometry" />
        </mxCell>
        <mxCell id="i4TxU1IBVAhbJ-KxuAWe-243" style="rounded=0;orthogonalLoop=1;jettySize=auto;html=1;endArrow=none;endFill=0;fillColor=#d5e8d4;strokeColor=#82b366;" edge="1" parent="i4TxU1IBVAhbJ-KxuAWe-227" source="i4TxU1IBVAhbJ-KxuAWe-244" target="i4TxU1IBVAhbJ-KxuAWe-235">
          <mxGeometry relative="1" as="geometry" />
        </mxCell>
        <mxCell id="i4TxU1IBVAhbJ-KxuAWe-244" value="2" style="ellipse;whiteSpace=wrap;html=1;aspect=fixed;strokeColor=#82b366;fillColor=#d5e8d4;" vertex="1" parent="i4TxU1IBVAhbJ-KxuAWe-227">
          <mxGeometry x="40" y="40" width="40" height="40" as="geometry" />
        </mxCell>
        <mxCell id="i4TxU1IBVAhbJ-KxuAWe-245" style="rounded=0;orthogonalLoop=1;jettySize=auto;html=1;endArrow=none;endFill=0;fillColor=#d5e8d4;strokeColor=#82b366;" edge="1" parent="i4TxU1IBVAhbJ-KxuAWe-227" source="i4TxU1IBVAhbJ-KxuAWe-248" target="i4TxU1IBVAhbJ-KxuAWe-259">
          <mxGeometry relative="1" as="geometry" />
        </mxCell>
        <mxCell id="i4TxU1IBVAhbJ-KxuAWe-246" style="rounded=0;orthogonalLoop=1;jettySize=auto;html=1;endArrow=none;endFill=0;fillColor=#d5e8d4;strokeColor=#82b366;" edge="1" parent="i4TxU1IBVAhbJ-KxuAWe-227" source="i4TxU1IBVAhbJ-KxuAWe-248" target="i4TxU1IBVAhbJ-KxuAWe-261">
          <mxGeometry relative="1" as="geometry" />
        </mxCell>
        <mxCell id="i4TxU1IBVAhbJ-KxuAWe-247" style="rounded=0;orthogonalLoop=1;jettySize=auto;html=1;endArrow=none;endFill=0;fillColor=#d5e8d4;strokeColor=#82b366;" edge="1" parent="i4TxU1IBVAhbJ-KxuAWe-227" source="i4TxU1IBVAhbJ-KxuAWe-248" target="i4TxU1IBVAhbJ-KxuAWe-238">
          <mxGeometry relative="1" as="geometry" />
        </mxCell>
        <mxCell id="i4TxU1IBVAhbJ-KxuAWe-248" value="2" style="ellipse;whiteSpace=wrap;html=1;aspect=fixed;strokeColor=#82b366;fillColor=#d5e8d4;" vertex="1" parent="i4TxU1IBVAhbJ-KxuAWe-227">
          <mxGeometry x="160" y="40" width="40" height="40" as="geometry" />
        </mxCell>
        <mxCell id="i4TxU1IBVAhbJ-KxuAWe-249" style="rounded=0;orthogonalLoop=1;jettySize=auto;html=1;endArrow=none;endFill=0;fillColor=#d5e8d4;strokeColor=#82b366;" edge="1" parent="i4TxU1IBVAhbJ-KxuAWe-227" source="i4TxU1IBVAhbJ-KxuAWe-251" target="i4TxU1IBVAhbJ-KxuAWe-261">
          <mxGeometry relative="1" as="geometry" />
        </mxCell>
        <mxCell id="i4TxU1IBVAhbJ-KxuAWe-250" style="rounded=0;orthogonalLoop=1;jettySize=auto;html=1;endArrow=none;endFill=0;fillColor=#d5e8d4;strokeColor=#82b366;" edge="1" parent="i4TxU1IBVAhbJ-KxuAWe-227" source="i4TxU1IBVAhbJ-KxuAWe-251" target="i4TxU1IBVAhbJ-KxuAWe-264">
          <mxGeometry relative="1" as="geometry" />
        </mxCell>
        <mxCell id="i4TxU1IBVAhbJ-KxuAWe-251" value="2" style="ellipse;whiteSpace=wrap;html=1;aspect=fixed;strokeColor=#82b366;fillColor=#d5e8d4;" vertex="1" parent="i4TxU1IBVAhbJ-KxuAWe-227">
          <mxGeometry x="160" y="160" width="40" height="40" as="geometry" />
        </mxCell>
        <mxCell id="i4TxU1IBVAhbJ-KxuAWe-252" style="rounded=0;orthogonalLoop=1;jettySize=auto;html=1;endArrow=none;endFill=0;fillColor=#d5e8d4;strokeColor=#82b366;" edge="1" parent="i4TxU1IBVAhbJ-KxuAWe-227" source="i4TxU1IBVAhbJ-KxuAWe-256" target="i4TxU1IBVAhbJ-KxuAWe-260">
          <mxGeometry relative="1" as="geometry" />
        </mxCell>
        <mxCell id="i4TxU1IBVAhbJ-KxuAWe-253" style="rounded=0;orthogonalLoop=1;jettySize=auto;html=1;endArrow=none;endFill=0;fillColor=#d5e8d4;strokeColor=#82b366;" edge="1" parent="i4TxU1IBVAhbJ-KxuAWe-227" source="i4TxU1IBVAhbJ-KxuAWe-256" target="i4TxU1IBVAhbJ-KxuAWe-235">
          <mxGeometry relative="1" as="geometry" />
        </mxCell>
        <mxCell id="i4TxU1IBVAhbJ-KxuAWe-254" style="rounded=0;orthogonalLoop=1;jettySize=auto;html=1;endArrow=none;endFill=0;fillColor=#d5e8d4;strokeColor=#82b366;" edge="1" parent="i4TxU1IBVAhbJ-KxuAWe-227" source="i4TxU1IBVAhbJ-KxuAWe-256" target="i4TxU1IBVAhbJ-KxuAWe-240">
          <mxGeometry relative="1" as="geometry" />
        </mxCell>
        <mxCell id="i4TxU1IBVAhbJ-KxuAWe-255" style="rounded=0;orthogonalLoop=1;jettySize=auto;html=1;endArrow=none;endFill=0;fillColor=#d5e8d4;strokeColor=#82b366;" edge="1" parent="i4TxU1IBVAhbJ-KxuAWe-227" source="i4TxU1IBVAhbJ-KxuAWe-256" target="i4TxU1IBVAhbJ-KxuAWe-264">
          <mxGeometry relative="1" as="geometry" />
        </mxCell>
        <mxCell id="i4TxU1IBVAhbJ-KxuAWe-256" value="2" style="ellipse;whiteSpace=wrap;html=1;aspect=fixed;strokeColor=#82b366;fillColor=#d5e8d4;" vertex="1" parent="i4TxU1IBVAhbJ-KxuAWe-227">
          <mxGeometry x="40" y="160" width="40" height="40" as="geometry" />
        </mxCell>
        <mxCell id="i4TxU1IBVAhbJ-KxuAWe-257" style="rounded=0;orthogonalLoop=1;jettySize=auto;html=1;endArrow=none;endFill=0;fillColor=#d5e8d4;strokeColor=#82b366;" edge="1" parent="i4TxU1IBVAhbJ-KxuAWe-227" source="i4TxU1IBVAhbJ-KxuAWe-259" target="i4TxU1IBVAhbJ-KxuAWe-260">
          <mxGeometry relative="1" as="geometry" />
        </mxCell>
        <mxCell id="i4TxU1IBVAhbJ-KxuAWe-258" style="rounded=0;orthogonalLoop=1;jettySize=auto;html=1;endArrow=none;endFill=0;fillColor=#d5e8d4;strokeColor=#82b366;" edge="1" parent="i4TxU1IBVAhbJ-KxuAWe-227" source="i4TxU1IBVAhbJ-KxuAWe-259" target="i4TxU1IBVAhbJ-KxuAWe-261">
          <mxGeometry relative="1" as="geometry" />
        </mxCell>
        <mxCell id="i4TxU1IBVAhbJ-KxuAWe-259" value="2" style="ellipse;whiteSpace=wrap;html=1;aspect=fixed;strokeColor=#82b366;fillColor=#d5e8d4;" vertex="1" parent="i4TxU1IBVAhbJ-KxuAWe-227">
          <mxGeometry x="70" y="80" width="40" height="40" as="geometry" />
        </mxCell>
        <mxCell id="i4TxU1IBVAhbJ-KxuAWe-260" value="2" style="ellipse;whiteSpace=wrap;html=1;aspect=fixed;strokeColor=#82b366;fillColor=#d5e8d4;" vertex="1" parent="i4TxU1IBVAhbJ-KxuAWe-227">
          <mxGeometry y="140" width="40" height="40" as="geometry" />
        </mxCell>
        <mxCell id="i4TxU1IBVAhbJ-KxuAWe-261" value="2" style="ellipse;whiteSpace=wrap;html=1;aspect=fixed;strokeColor=#82b366;fillColor=#d5e8d4;" vertex="1" parent="i4TxU1IBVAhbJ-KxuAWe-227">
          <mxGeometry x="120" y="140" width="40" height="40" as="geometry" />
        </mxCell>
        <mxCell id="i4TxU1IBVAhbJ-KxuAWe-262" style="rounded=0;orthogonalLoop=1;jettySize=auto;html=1;endArrow=none;endFill=0;fillColor=#d5e8d4;strokeColor=#82b366;" edge="1" parent="i4TxU1IBVAhbJ-KxuAWe-227" source="i4TxU1IBVAhbJ-KxuAWe-264" target="i4TxU1IBVAhbJ-KxuAWe-261">
          <mxGeometry relative="1" as="geometry" />
        </mxCell>
        <mxCell id="i4TxU1IBVAhbJ-KxuAWe-263" style="rounded=0;orthogonalLoop=1;jettySize=auto;html=1;endArrow=none;endFill=0;fillColor=#d5e8d4;strokeColor=#82b366;" edge="1" parent="i4TxU1IBVAhbJ-KxuAWe-227" source="i4TxU1IBVAhbJ-KxuAWe-264" target="i4TxU1IBVAhbJ-KxuAWe-260">
          <mxGeometry relative="1" as="geometry" />
        </mxCell>
        <mxCell id="i4TxU1IBVAhbJ-KxuAWe-264" value="2" style="ellipse;whiteSpace=wrap;html=1;aspect=fixed;strokeColor=#82b366;fillColor=#d5e8d4;" vertex="1" parent="i4TxU1IBVAhbJ-KxuAWe-227">
          <mxGeometry x="70" y="200" width="40" height="40" as="geometry" />
        </mxCell>
        <mxCell id="i4TxU1IBVAhbJ-KxuAWe-328" value="" style="group" vertex="1" connectable="0" parent="1">
          <mxGeometry x="430" y="600" width="240" height="240" as="geometry" />
        </mxCell>
        <mxCell id="i4TxU1IBVAhbJ-KxuAWe-319" style="edgeStyle=orthogonalEdgeStyle;rounded=0;orthogonalLoop=1;jettySize=auto;html=1;endArrow=none;endFill=0;fillColor=#fff2cc;strokeColor=#d6b656;" edge="1" parent="i4TxU1IBVAhbJ-KxuAWe-328" source="i4TxU1IBVAhbJ-KxuAWe-306" target="i4TxU1IBVAhbJ-KxuAWe-313">
          <mxGeometry relative="1" as="geometry" />
        </mxCell>
        <mxCell id="i4TxU1IBVAhbJ-KxuAWe-326" style="edgeStyle=orthogonalEdgeStyle;rounded=0;orthogonalLoop=1;jettySize=auto;html=1;endArrow=none;endFill=0;fillColor=#fff2cc;strokeColor=#d6b656;" edge="1" parent="i4TxU1IBVAhbJ-KxuAWe-328" source="i4TxU1IBVAhbJ-KxuAWe-306" target="i4TxU1IBVAhbJ-KxuAWe-307">
          <mxGeometry relative="1" as="geometry" />
        </mxCell>
        <mxCell id="i4TxU1IBVAhbJ-KxuAWe-306" value="3" style="ellipse;whiteSpace=wrap;html=1;aspect=fixed;fillColor=#fff2cc;strokeColor=#d6b656;" vertex="1" parent="i4TxU1IBVAhbJ-KxuAWe-328">
          <mxGeometry y="80" width="40" height="40" as="geometry" />
        </mxCell>
        <mxCell id="i4TxU1IBVAhbJ-KxuAWe-307" value="3" style="ellipse;whiteSpace=wrap;html=1;aspect=fixed;fillColor=#fff2cc;strokeColor=#d6b656;" vertex="1" parent="i4TxU1IBVAhbJ-KxuAWe-328">
          <mxGeometry y="200" width="40" height="40" as="geometry" />
        </mxCell>
        <mxCell id="i4TxU1IBVAhbJ-KxuAWe-325" style="edgeStyle=orthogonalEdgeStyle;rounded=0;orthogonalLoop=1;jettySize=auto;html=1;endArrow=none;endFill=0;fillColor=#fff2cc;strokeColor=#d6b656;" edge="1" parent="i4TxU1IBVAhbJ-KxuAWe-328" source="i4TxU1IBVAhbJ-KxuAWe-308" target="i4TxU1IBVAhbJ-KxuAWe-307">
          <mxGeometry relative="1" as="geometry" />
        </mxCell>
        <mxCell id="i4TxU1IBVAhbJ-KxuAWe-308" value="3" style="ellipse;whiteSpace=wrap;html=1;aspect=fixed;fillColor=#fff2cc;strokeColor=#d6b656;" vertex="1" parent="i4TxU1IBVAhbJ-KxuAWe-328">
          <mxGeometry x="120" y="200" width="40" height="40" as="geometry" />
        </mxCell>
        <mxCell id="i4TxU1IBVAhbJ-KxuAWe-314" style="edgeStyle=orthogonalEdgeStyle;rounded=0;orthogonalLoop=1;jettySize=auto;html=1;endArrow=none;endFill=0;fillColor=#fff2cc;strokeColor=#d6b656;" edge="1" parent="i4TxU1IBVAhbJ-KxuAWe-328" source="i4TxU1IBVAhbJ-KxuAWe-309" target="i4TxU1IBVAhbJ-KxuAWe-310">
          <mxGeometry relative="1" as="geometry" />
        </mxCell>
        <mxCell id="i4TxU1IBVAhbJ-KxuAWe-315" style="rounded=0;orthogonalLoop=1;jettySize=auto;html=1;exitX=0;exitY=1;exitDx=0;exitDy=0;endArrow=none;endFill=0;fillColor=#fff2cc;strokeColor=#d6b656;" edge="1" parent="i4TxU1IBVAhbJ-KxuAWe-328" source="i4TxU1IBVAhbJ-KxuAWe-309" target="i4TxU1IBVAhbJ-KxuAWe-306">
          <mxGeometry relative="1" as="geometry" />
        </mxCell>
        <mxCell id="i4TxU1IBVAhbJ-KxuAWe-318" style="edgeStyle=orthogonalEdgeStyle;rounded=0;orthogonalLoop=1;jettySize=auto;html=1;endArrow=none;endFill=0;fillColor=#fff2cc;strokeColor=#d6b656;" edge="1" parent="i4TxU1IBVAhbJ-KxuAWe-328" source="i4TxU1IBVAhbJ-KxuAWe-309" target="i4TxU1IBVAhbJ-KxuAWe-311">
          <mxGeometry relative="1" as="geometry" />
        </mxCell>
        <mxCell id="i4TxU1IBVAhbJ-KxuAWe-309" value="3" style="ellipse;whiteSpace=wrap;html=1;aspect=fixed;strokeColor=#d6b656;fillColor=#fff2cc;" vertex="1" parent="i4TxU1IBVAhbJ-KxuAWe-328">
          <mxGeometry x="80" width="40" height="40" as="geometry" />
        </mxCell>
        <mxCell id="i4TxU1IBVAhbJ-KxuAWe-321" style="edgeStyle=orthogonalEdgeStyle;rounded=0;orthogonalLoop=1;jettySize=auto;html=1;endArrow=none;endFill=0;fillColor=#fff2cc;strokeColor=#d6b656;" edge="1" parent="i4TxU1IBVAhbJ-KxuAWe-328" source="i4TxU1IBVAhbJ-KxuAWe-310" target="i4TxU1IBVAhbJ-KxuAWe-312">
          <mxGeometry relative="1" as="geometry" />
        </mxCell>
        <mxCell id="i4TxU1IBVAhbJ-KxuAWe-310" value="3" style="ellipse;whiteSpace=wrap;html=1;aspect=fixed;strokeColor=#d6b656;fillColor=#fff2cc;" vertex="1" parent="i4TxU1IBVAhbJ-KxuAWe-328">
          <mxGeometry x="200" width="40" height="40" as="geometry" />
        </mxCell>
        <mxCell id="i4TxU1IBVAhbJ-KxuAWe-324" style="rounded=0;orthogonalLoop=1;jettySize=auto;html=1;endArrow=none;endFill=0;fillColor=#fff2cc;strokeColor=#d6b656;" edge="1" parent="i4TxU1IBVAhbJ-KxuAWe-328" source="i4TxU1IBVAhbJ-KxuAWe-311" target="i4TxU1IBVAhbJ-KxuAWe-307">
          <mxGeometry relative="1" as="geometry" />
        </mxCell>
        <mxCell id="i4TxU1IBVAhbJ-KxuAWe-311" value="3" style="ellipse;whiteSpace=wrap;html=1;aspect=fixed;strokeColor=#d6b656;fillColor=#fff2cc;" vertex="1" parent="i4TxU1IBVAhbJ-KxuAWe-328">
          <mxGeometry x="80" y="120" width="40" height="40" as="geometry" />
        </mxCell>
        <mxCell id="i4TxU1IBVAhbJ-KxuAWe-322" style="rounded=0;orthogonalLoop=1;jettySize=auto;html=1;endArrow=none;endFill=0;fillColor=#fff2cc;strokeColor=#d6b656;" edge="1" parent="i4TxU1IBVAhbJ-KxuAWe-328" source="i4TxU1IBVAhbJ-KxuAWe-312" target="i4TxU1IBVAhbJ-KxuAWe-308">
          <mxGeometry relative="1" as="geometry" />
        </mxCell>
        <mxCell id="i4TxU1IBVAhbJ-KxuAWe-323" style="edgeStyle=orthogonalEdgeStyle;rounded=0;orthogonalLoop=1;jettySize=auto;html=1;endArrow=none;endFill=0;fillColor=#fff2cc;strokeColor=#d6b656;" edge="1" parent="i4TxU1IBVAhbJ-KxuAWe-328" source="i4TxU1IBVAhbJ-KxuAWe-312" target="i4TxU1IBVAhbJ-KxuAWe-311">
          <mxGeometry relative="1" as="geometry" />
        </mxCell>
        <mxCell id="i4TxU1IBVAhbJ-KxuAWe-312" value="3" style="ellipse;whiteSpace=wrap;html=1;aspect=fixed;strokeColor=#d6b656;fillColor=#fff2cc;" vertex="1" parent="i4TxU1IBVAhbJ-KxuAWe-328">
          <mxGeometry x="200" y="120" width="40" height="40" as="geometry" />
        </mxCell>
        <mxCell id="i4TxU1IBVAhbJ-KxuAWe-320" style="rounded=0;orthogonalLoop=1;jettySize=auto;html=1;endArrow=none;endFill=0;fillColor=#fff2cc;strokeColor=#d6b656;" edge="1" parent="i4TxU1IBVAhbJ-KxuAWe-328" source="i4TxU1IBVAhbJ-KxuAWe-313" target="i4TxU1IBVAhbJ-KxuAWe-310">
          <mxGeometry relative="1" as="geometry" />
        </mxCell>
        <mxCell id="i4TxU1IBVAhbJ-KxuAWe-327" style="edgeStyle=orthogonalEdgeStyle;rounded=0;orthogonalLoop=1;jettySize=auto;html=1;endArrow=none;endFill=0;fillColor=#fff2cc;strokeColor=#d6b656;" edge="1" parent="i4TxU1IBVAhbJ-KxuAWe-328" source="i4TxU1IBVAhbJ-KxuAWe-313" target="i4TxU1IBVAhbJ-KxuAWe-308">
          <mxGeometry relative="1" as="geometry" />
        </mxCell>
        <mxCell id="i4TxU1IBVAhbJ-KxuAWe-313" value="3" style="ellipse;whiteSpace=wrap;html=1;aspect=fixed;fillColor=#fff2cc;strokeColor=#d6b656;" vertex="1" parent="i4TxU1IBVAhbJ-KxuAWe-328">
          <mxGeometry x="120" y="80" width="40" height="40" as="geometry" />
        </mxCell>
        <mxCell id="i4TxU1IBVAhbJ-KxuAWe-329" value="" style="group" vertex="1" connectable="0" parent="1">
          <mxGeometry x="80" y="920" width="190" height="210" as="geometry" />
        </mxCell>
        <mxCell id="i4TxU1IBVAhbJ-KxuAWe-330" value="1" style="ellipse;whiteSpace=wrap;html=1;aspect=fixed;strokeColor=#6c8ebf;fillColor=#dae8fc;" vertex="1" parent="i4TxU1IBVAhbJ-KxuAWe-329">
          <mxGeometry x="60" y="120" width="40" height="40" as="geometry" />
        </mxCell>
        <mxCell id="i4TxU1IBVAhbJ-KxuAWe-331" style="edgeStyle=orthogonalEdgeStyle;rounded=0;orthogonalLoop=1;jettySize=auto;html=1;endArrow=none;endFill=0;strokeColor=#6c8ebf;fillColor=#dae8fc;" edge="1" parent="i4TxU1IBVAhbJ-KxuAWe-329" source="i4TxU1IBVAhbJ-KxuAWe-332" target="i4TxU1IBVAhbJ-KxuAWe-333">
          <mxGeometry relative="1" as="geometry" />
        </mxCell>
        <mxCell id="i4TxU1IBVAhbJ-KxuAWe-332" value="1" style="ellipse;whiteSpace=wrap;html=1;aspect=fixed;strokeColor=#6c8ebf;fillColor=#dae8fc;" vertex="1" parent="i4TxU1IBVAhbJ-KxuAWe-329">
          <mxGeometry y="60" width="40" height="40" as="geometry" />
        </mxCell>
        <mxCell id="i4TxU1IBVAhbJ-KxuAWe-333" value="1" style="ellipse;whiteSpace=wrap;html=1;aspect=fixed;strokeColor=#6c8ebf;fillColor=#dae8fc;" vertex="1" parent="i4TxU1IBVAhbJ-KxuAWe-329">
          <mxGeometry x="120" y="60" width="40" height="40" as="geometry" />
        </mxCell>
        <mxCell id="i4TxU1IBVAhbJ-KxuAWe-334" value="1" style="ellipse;whiteSpace=wrap;html=1;aspect=fixed;strokeColor=#6c8ebf;fillColor=#dae8fc;" vertex="1" parent="i4TxU1IBVAhbJ-KxuAWe-329">
          <mxGeometry x="100" y="20" width="40" height="40" as="geometry" />
        </mxCell>
        <mxCell id="i4TxU1IBVAhbJ-KxuAWe-335" style="edgeStyle=orthogonalEdgeStyle;rounded=0;orthogonalLoop=1;jettySize=auto;html=1;endArrow=none;endFill=0;strokeColor=#6c8ebf;fillColor=#dae8fc;" edge="1" parent="i4TxU1IBVAhbJ-KxuAWe-329" source="i4TxU1IBVAhbJ-KxuAWe-336" target="i4TxU1IBVAhbJ-KxuAWe-330">
          <mxGeometry relative="1" as="geometry" />
        </mxCell>
        <mxCell id="i4TxU1IBVAhbJ-KxuAWe-336" value="1" style="ellipse;whiteSpace=wrap;html=1;aspect=fixed;strokeColor=#6c8ebf;fillColor=#dae8fc;" vertex="1" parent="i4TxU1IBVAhbJ-KxuAWe-329">
          <mxGeometry x="60" width="40" height="40" as="geometry" />
        </mxCell>
        <mxCell id="i4TxU1IBVAhbJ-KxuAWe-337" style="rounded=0;orthogonalLoop=1;jettySize=auto;html=1;endArrow=none;endFill=0;strokeColor=#6c8ebf;fillColor=#dae8fc;" edge="1" parent="i4TxU1IBVAhbJ-KxuAWe-329" source="i4TxU1IBVAhbJ-KxuAWe-338" target="i4TxU1IBVAhbJ-KxuAWe-334">
          <mxGeometry relative="1" as="geometry" />
        </mxCell>
        <mxCell id="i4TxU1IBVAhbJ-KxuAWe-338" value="1" style="ellipse;whiteSpace=wrap;html=1;aspect=fixed;strokeColor=#6c8ebf;fillColor=#dae8fc;" vertex="1" parent="i4TxU1IBVAhbJ-KxuAWe-329">
          <mxGeometry x="20" y="100" width="40" height="40" as="geometry" />
        </mxCell>
        <mxCell id="i4TxU1IBVAhbJ-KxuAWe-339" value="" style="group" vertex="1" connectable="0" parent="i4TxU1IBVAhbJ-KxuAWe-329">
          <mxGeometry x="-40" y="-40" width="240" height="240" as="geometry" />
        </mxCell>
        <mxCell id="i4TxU1IBVAhbJ-KxuAWe-340" style="rounded=0;orthogonalLoop=1;jettySize=auto;html=1;endArrow=none;endFill=0;fillColor=#d5e8d4;strokeColor=#82b366;" edge="1" parent="i4TxU1IBVAhbJ-KxuAWe-339" source="i4TxU1IBVAhbJ-KxuAWe-344" target="i4TxU1IBVAhbJ-KxuAWe-356">
          <mxGeometry relative="1" as="geometry" />
        </mxCell>
        <mxCell id="i4TxU1IBVAhbJ-KxuAWe-341" style="rounded=0;orthogonalLoop=1;jettySize=auto;html=1;endArrow=none;endFill=0;fillColor=#d5e8d4;strokeColor=#82b366;" edge="1" parent="i4TxU1IBVAhbJ-KxuAWe-339" source="i4TxU1IBVAhbJ-KxuAWe-344" target="i4TxU1IBVAhbJ-KxuAWe-347">
          <mxGeometry relative="1" as="geometry" />
        </mxCell>
        <mxCell id="i4TxU1IBVAhbJ-KxuAWe-342" style="rounded=0;orthogonalLoop=1;jettySize=auto;html=1;endArrow=none;endFill=0;fillColor=#d5e8d4;strokeColor=#82b366;" edge="1" parent="i4TxU1IBVAhbJ-KxuAWe-339" source="i4TxU1IBVAhbJ-KxuAWe-344" target="i4TxU1IBVAhbJ-KxuAWe-360">
          <mxGeometry relative="1" as="geometry" />
        </mxCell>
        <mxCell id="i4TxU1IBVAhbJ-KxuAWe-343" style="rounded=0;orthogonalLoop=1;jettySize=auto;html=1;endArrow=none;endFill=0;fillColor=#d5e8d4;strokeColor=#82b366;" edge="1" parent="i4TxU1IBVAhbJ-KxuAWe-339" source="i4TxU1IBVAhbJ-KxuAWe-344" target="i4TxU1IBVAhbJ-KxuAWe-350">
          <mxGeometry relative="1" as="geometry" />
        </mxCell>
        <mxCell id="i4TxU1IBVAhbJ-KxuAWe-344" value="2" style="ellipse;whiteSpace=wrap;html=1;aspect=fixed;strokeColor=#82b366;fillColor=#d5e8d4;" vertex="1" parent="i4TxU1IBVAhbJ-KxuAWe-339">
          <mxGeometry x="140" width="40" height="40" as="geometry" />
        </mxCell>
        <mxCell id="i4TxU1IBVAhbJ-KxuAWe-345" style="rounded=0;orthogonalLoop=1;jettySize=auto;html=1;endArrow=none;endFill=0;fillColor=#d5e8d4;strokeColor=#82b366;" edge="1" parent="i4TxU1IBVAhbJ-KxuAWe-339" source="i4TxU1IBVAhbJ-KxuAWe-347" target="i4TxU1IBVAhbJ-KxuAWe-352">
          <mxGeometry relative="1" as="geometry" />
        </mxCell>
        <mxCell id="i4TxU1IBVAhbJ-KxuAWe-346" style="rounded=0;orthogonalLoop=1;jettySize=auto;html=1;endArrow=none;endFill=0;fillColor=#d5e8d4;strokeColor=#82b366;" edge="1" parent="i4TxU1IBVAhbJ-KxuAWe-339" source="i4TxU1IBVAhbJ-KxuAWe-347" target="i4TxU1IBVAhbJ-KxuAWe-372">
          <mxGeometry relative="1" as="geometry" />
        </mxCell>
        <mxCell id="i4TxU1IBVAhbJ-KxuAWe-347" value="2" style="ellipse;whiteSpace=wrap;html=1;aspect=fixed;strokeColor=#82b366;fillColor=#d5e8d4;" vertex="1" parent="i4TxU1IBVAhbJ-KxuAWe-339">
          <mxGeometry x="80" y="60" width="40" height="40" as="geometry" />
        </mxCell>
        <mxCell id="i4TxU1IBVAhbJ-KxuAWe-348" style="rounded=0;orthogonalLoop=1;jettySize=auto;html=1;endArrow=none;endFill=0;fillColor=#d5e8d4;strokeColor=#82b366;" edge="1" parent="i4TxU1IBVAhbJ-KxuAWe-339" source="i4TxU1IBVAhbJ-KxuAWe-350" target="i4TxU1IBVAhbJ-KxuAWe-352">
          <mxGeometry relative="1" as="geometry" />
        </mxCell>
        <mxCell id="i4TxU1IBVAhbJ-KxuAWe-349" style="rounded=0;orthogonalLoop=1;jettySize=auto;html=1;endArrow=none;endFill=0;fillColor=#d5e8d4;strokeColor=#82b366;" edge="1" parent="i4TxU1IBVAhbJ-KxuAWe-339" source="i4TxU1IBVAhbJ-KxuAWe-350" target="i4TxU1IBVAhbJ-KxuAWe-363">
          <mxGeometry relative="1" as="geometry" />
        </mxCell>
        <mxCell id="i4TxU1IBVAhbJ-KxuAWe-350" value="2" style="ellipse;whiteSpace=wrap;html=1;aspect=fixed;strokeColor=#82b366;fillColor=#d5e8d4;" vertex="1" parent="i4TxU1IBVAhbJ-KxuAWe-339">
          <mxGeometry x="200" y="60" width="40" height="40" as="geometry" />
        </mxCell>
        <mxCell id="i4TxU1IBVAhbJ-KxuAWe-351" style="rounded=0;orthogonalLoop=1;jettySize=auto;html=1;endArrow=none;endFill=0;fillColor=#d5e8d4;strokeColor=#82b366;" edge="1" parent="i4TxU1IBVAhbJ-KxuAWe-339" source="i4TxU1IBVAhbJ-KxuAWe-352" target="i4TxU1IBVAhbJ-KxuAWe-363">
          <mxGeometry relative="1" as="geometry" />
        </mxCell>
        <mxCell id="i4TxU1IBVAhbJ-KxuAWe-352" value="2" style="ellipse;whiteSpace=wrap;html=1;aspect=fixed;strokeColor=#82b366;fillColor=#d5e8d4;" vertex="1" parent="i4TxU1IBVAhbJ-KxuAWe-339">
          <mxGeometry x="140" y="120" width="40" height="40" as="geometry" />
        </mxCell>
        <mxCell id="i4TxU1IBVAhbJ-KxuAWe-353" style="rounded=0;orthogonalLoop=1;jettySize=auto;html=1;endArrow=none;endFill=0;fillColor=#d5e8d4;strokeColor=#82b366;" edge="1" parent="i4TxU1IBVAhbJ-KxuAWe-339" source="i4TxU1IBVAhbJ-KxuAWe-356" target="i4TxU1IBVAhbJ-KxuAWe-371">
          <mxGeometry relative="1" as="geometry" />
        </mxCell>
        <mxCell id="i4TxU1IBVAhbJ-KxuAWe-354" style="rounded=0;orthogonalLoop=1;jettySize=auto;html=1;endArrow=none;endFill=0;fillColor=#d5e8d4;strokeColor=#82b366;" edge="1" parent="i4TxU1IBVAhbJ-KxuAWe-339" source="i4TxU1IBVAhbJ-KxuAWe-356" target="i4TxU1IBVAhbJ-KxuAWe-372">
          <mxGeometry relative="1" as="geometry" />
        </mxCell>
        <mxCell id="i4TxU1IBVAhbJ-KxuAWe-355" style="rounded=0;orthogonalLoop=1;jettySize=auto;html=1;endArrow=none;endFill=0;fillColor=#d5e8d4;strokeColor=#82b366;" edge="1" parent="i4TxU1IBVAhbJ-KxuAWe-339" source="i4TxU1IBVAhbJ-KxuAWe-356" target="i4TxU1IBVAhbJ-KxuAWe-347">
          <mxGeometry relative="1" as="geometry" />
        </mxCell>
        <mxCell id="i4TxU1IBVAhbJ-KxuAWe-356" value="2" style="ellipse;whiteSpace=wrap;html=1;aspect=fixed;strokeColor=#82b366;fillColor=#d5e8d4;" vertex="1" parent="i4TxU1IBVAhbJ-KxuAWe-339">
          <mxGeometry x="40" y="40" width="40" height="40" as="geometry" />
        </mxCell>
        <mxCell id="i4TxU1IBVAhbJ-KxuAWe-357" style="rounded=0;orthogonalLoop=1;jettySize=auto;html=1;endArrow=none;endFill=0;fillColor=#d5e8d4;strokeColor=#82b366;" edge="1" parent="i4TxU1IBVAhbJ-KxuAWe-339" source="i4TxU1IBVAhbJ-KxuAWe-360" target="i4TxU1IBVAhbJ-KxuAWe-371">
          <mxGeometry relative="1" as="geometry" />
        </mxCell>
        <mxCell id="i4TxU1IBVAhbJ-KxuAWe-358" style="rounded=0;orthogonalLoop=1;jettySize=auto;html=1;endArrow=none;endFill=0;fillColor=#d5e8d4;strokeColor=#82b366;" edge="1" parent="i4TxU1IBVAhbJ-KxuAWe-339" source="i4TxU1IBVAhbJ-KxuAWe-360" target="i4TxU1IBVAhbJ-KxuAWe-373">
          <mxGeometry relative="1" as="geometry" />
        </mxCell>
        <mxCell id="i4TxU1IBVAhbJ-KxuAWe-359" style="rounded=0;orthogonalLoop=1;jettySize=auto;html=1;endArrow=none;endFill=0;fillColor=#d5e8d4;strokeColor=#82b366;" edge="1" parent="i4TxU1IBVAhbJ-KxuAWe-339" source="i4TxU1IBVAhbJ-KxuAWe-360" target="i4TxU1IBVAhbJ-KxuAWe-350">
          <mxGeometry relative="1" as="geometry" />
        </mxCell>
        <mxCell id="i4TxU1IBVAhbJ-KxuAWe-360" value="2" style="ellipse;whiteSpace=wrap;html=1;aspect=fixed;strokeColor=#82b366;fillColor=#d5e8d4;" vertex="1" parent="i4TxU1IBVAhbJ-KxuAWe-339">
          <mxGeometry x="160" y="40" width="40" height="40" as="geometry" />
        </mxCell>
        <mxCell id="i4TxU1IBVAhbJ-KxuAWe-361" style="rounded=0;orthogonalLoop=1;jettySize=auto;html=1;endArrow=none;endFill=0;fillColor=#d5e8d4;strokeColor=#82b366;" edge="1" parent="i4TxU1IBVAhbJ-KxuAWe-339" source="i4TxU1IBVAhbJ-KxuAWe-363" target="i4TxU1IBVAhbJ-KxuAWe-373">
          <mxGeometry relative="1" as="geometry" />
        </mxCell>
        <mxCell id="i4TxU1IBVAhbJ-KxuAWe-362" style="rounded=0;orthogonalLoop=1;jettySize=auto;html=1;endArrow=none;endFill=0;fillColor=#d5e8d4;strokeColor=#82b366;" edge="1" parent="i4TxU1IBVAhbJ-KxuAWe-339" source="i4TxU1IBVAhbJ-KxuAWe-363" target="i4TxU1IBVAhbJ-KxuAWe-376">
          <mxGeometry relative="1" as="geometry" />
        </mxCell>
        <mxCell id="i4TxU1IBVAhbJ-KxuAWe-363" value="2" style="ellipse;whiteSpace=wrap;html=1;aspect=fixed;strokeColor=#82b366;fillColor=#d5e8d4;" vertex="1" parent="i4TxU1IBVAhbJ-KxuAWe-339">
          <mxGeometry x="160" y="160" width="40" height="40" as="geometry" />
        </mxCell>
        <mxCell id="i4TxU1IBVAhbJ-KxuAWe-364" style="rounded=0;orthogonalLoop=1;jettySize=auto;html=1;endArrow=none;endFill=0;fillColor=#d5e8d4;strokeColor=#82b366;" edge="1" parent="i4TxU1IBVAhbJ-KxuAWe-339" source="i4TxU1IBVAhbJ-KxuAWe-368" target="i4TxU1IBVAhbJ-KxuAWe-372">
          <mxGeometry relative="1" as="geometry" />
        </mxCell>
        <mxCell id="i4TxU1IBVAhbJ-KxuAWe-365" style="rounded=0;orthogonalLoop=1;jettySize=auto;html=1;endArrow=none;endFill=0;fillColor=#d5e8d4;strokeColor=#82b366;" edge="1" parent="i4TxU1IBVAhbJ-KxuAWe-339" source="i4TxU1IBVAhbJ-KxuAWe-368" target="i4TxU1IBVAhbJ-KxuAWe-347">
          <mxGeometry relative="1" as="geometry" />
        </mxCell>
        <mxCell id="i4TxU1IBVAhbJ-KxuAWe-366" style="rounded=0;orthogonalLoop=1;jettySize=auto;html=1;endArrow=none;endFill=0;fillColor=#d5e8d4;strokeColor=#82b366;" edge="1" parent="i4TxU1IBVAhbJ-KxuAWe-339" source="i4TxU1IBVAhbJ-KxuAWe-368" target="i4TxU1IBVAhbJ-KxuAWe-352">
          <mxGeometry relative="1" as="geometry" />
        </mxCell>
        <mxCell id="i4TxU1IBVAhbJ-KxuAWe-367" style="rounded=0;orthogonalLoop=1;jettySize=auto;html=1;endArrow=none;endFill=0;fillColor=#d5e8d4;strokeColor=#82b366;" edge="1" parent="i4TxU1IBVAhbJ-KxuAWe-339" source="i4TxU1IBVAhbJ-KxuAWe-368" target="i4TxU1IBVAhbJ-KxuAWe-376">
          <mxGeometry relative="1" as="geometry" />
        </mxCell>
        <mxCell id="i4TxU1IBVAhbJ-KxuAWe-368" value="2" style="ellipse;whiteSpace=wrap;html=1;aspect=fixed;strokeColor=#82b366;fillColor=#d5e8d4;" vertex="1" parent="i4TxU1IBVAhbJ-KxuAWe-339">
          <mxGeometry x="40" y="160" width="40" height="40" as="geometry" />
        </mxCell>
        <mxCell id="i4TxU1IBVAhbJ-KxuAWe-369" style="rounded=0;orthogonalLoop=1;jettySize=auto;html=1;endArrow=none;endFill=0;fillColor=#d5e8d4;strokeColor=#82b366;" edge="1" parent="i4TxU1IBVAhbJ-KxuAWe-339" source="i4TxU1IBVAhbJ-KxuAWe-371" target="i4TxU1IBVAhbJ-KxuAWe-372">
          <mxGeometry relative="1" as="geometry" />
        </mxCell>
        <mxCell id="i4TxU1IBVAhbJ-KxuAWe-370" style="rounded=0;orthogonalLoop=1;jettySize=auto;html=1;endArrow=none;endFill=0;fillColor=#d5e8d4;strokeColor=#82b366;" edge="1" parent="i4TxU1IBVAhbJ-KxuAWe-339" source="i4TxU1IBVAhbJ-KxuAWe-371" target="i4TxU1IBVAhbJ-KxuAWe-373">
          <mxGeometry relative="1" as="geometry" />
        </mxCell>
        <mxCell id="i4TxU1IBVAhbJ-KxuAWe-371" value="2" style="ellipse;whiteSpace=wrap;html=1;aspect=fixed;strokeColor=#82b366;fillColor=#d5e8d4;" vertex="1" parent="i4TxU1IBVAhbJ-KxuAWe-339">
          <mxGeometry x="70" y="80" width="40" height="40" as="geometry" />
        </mxCell>
        <mxCell id="i4TxU1IBVAhbJ-KxuAWe-372" value="2" style="ellipse;whiteSpace=wrap;html=1;aspect=fixed;strokeColor=#82b366;fillColor=#d5e8d4;" vertex="1" parent="i4TxU1IBVAhbJ-KxuAWe-339">
          <mxGeometry y="140" width="40" height="40" as="geometry" />
        </mxCell>
        <mxCell id="i4TxU1IBVAhbJ-KxuAWe-373" value="2" style="ellipse;whiteSpace=wrap;html=1;aspect=fixed;strokeColor=#82b366;fillColor=#d5e8d4;" vertex="1" parent="i4TxU1IBVAhbJ-KxuAWe-339">
          <mxGeometry x="120" y="140" width="40" height="40" as="geometry" />
        </mxCell>
        <mxCell id="i4TxU1IBVAhbJ-KxuAWe-374" style="rounded=0;orthogonalLoop=1;jettySize=auto;html=1;endArrow=none;endFill=0;fillColor=#d5e8d4;strokeColor=#82b366;" edge="1" parent="i4TxU1IBVAhbJ-KxuAWe-339" source="i4TxU1IBVAhbJ-KxuAWe-376" target="i4TxU1IBVAhbJ-KxuAWe-373">
          <mxGeometry relative="1" as="geometry" />
        </mxCell>
        <mxCell id="i4TxU1IBVAhbJ-KxuAWe-375" style="rounded=0;orthogonalLoop=1;jettySize=auto;html=1;endArrow=none;endFill=0;fillColor=#d5e8d4;strokeColor=#82b366;" edge="1" parent="i4TxU1IBVAhbJ-KxuAWe-339" source="i4TxU1IBVAhbJ-KxuAWe-376" target="i4TxU1IBVAhbJ-KxuAWe-372">
          <mxGeometry relative="1" as="geometry" />
        </mxCell>
        <mxCell id="i4TxU1IBVAhbJ-KxuAWe-376" value="2" style="ellipse;whiteSpace=wrap;html=1;aspect=fixed;strokeColor=#82b366;fillColor=#d5e8d4;" vertex="1" parent="i4TxU1IBVAhbJ-KxuAWe-339">
          <mxGeometry x="70" y="200" width="40" height="40" as="geometry" />
        </mxCell>
        <mxCell id="i4TxU1IBVAhbJ-KxuAWe-377" value="" style="group" vertex="1" connectable="0" parent="i4TxU1IBVAhbJ-KxuAWe-339">
          <mxGeometry width="240" height="240" as="geometry" />
        </mxCell>
        <mxCell id="i4TxU1IBVAhbJ-KxuAWe-378" style="edgeStyle=orthogonalEdgeStyle;rounded=0;orthogonalLoop=1;jettySize=auto;html=1;endArrow=none;endFill=0;fillColor=#fff2cc;strokeColor=#d6b656;" edge="1" parent="i4TxU1IBVAhbJ-KxuAWe-377" source="i4TxU1IBVAhbJ-KxuAWe-380" target="i4TxU1IBVAhbJ-KxuAWe-397">
          <mxGeometry relative="1" as="geometry" />
        </mxCell>
        <mxCell id="i4TxU1IBVAhbJ-KxuAWe-379" style="edgeStyle=orthogonalEdgeStyle;rounded=0;orthogonalLoop=1;jettySize=auto;html=1;endArrow=none;endFill=0;fillColor=#fff2cc;strokeColor=#d6b656;" edge="1" parent="i4TxU1IBVAhbJ-KxuAWe-377" source="i4TxU1IBVAhbJ-KxuAWe-380" target="i4TxU1IBVAhbJ-KxuAWe-381">
          <mxGeometry relative="1" as="geometry" />
        </mxCell>
        <mxCell id="i4TxU1IBVAhbJ-KxuAWe-380" value="3" style="ellipse;whiteSpace=wrap;html=1;aspect=fixed;fillColor=#fff2cc;strokeColor=#d6b656;" vertex="1" parent="i4TxU1IBVAhbJ-KxuAWe-377">
          <mxGeometry y="80" width="40" height="40" as="geometry" />
        </mxCell>
        <mxCell id="i4TxU1IBVAhbJ-KxuAWe-381" value="3" style="ellipse;whiteSpace=wrap;html=1;aspect=fixed;fillColor=#fff2cc;strokeColor=#d6b656;" vertex="1" parent="i4TxU1IBVAhbJ-KxuAWe-377">
          <mxGeometry y="200" width="40" height="40" as="geometry" />
        </mxCell>
        <mxCell id="i4TxU1IBVAhbJ-KxuAWe-382" style="edgeStyle=orthogonalEdgeStyle;rounded=0;orthogonalLoop=1;jettySize=auto;html=1;endArrow=none;endFill=0;fillColor=#fff2cc;strokeColor=#d6b656;" edge="1" parent="i4TxU1IBVAhbJ-KxuAWe-377" source="i4TxU1IBVAhbJ-KxuAWe-383" target="i4TxU1IBVAhbJ-KxuAWe-381">
          <mxGeometry relative="1" as="geometry" />
        </mxCell>
        <mxCell id="i4TxU1IBVAhbJ-KxuAWe-383" value="3" style="ellipse;whiteSpace=wrap;html=1;aspect=fixed;fillColor=#fff2cc;strokeColor=#d6b656;" vertex="1" parent="i4TxU1IBVAhbJ-KxuAWe-377">
          <mxGeometry x="120" y="200" width="40" height="40" as="geometry" />
        </mxCell>
        <mxCell id="i4TxU1IBVAhbJ-KxuAWe-384" style="edgeStyle=orthogonalEdgeStyle;rounded=0;orthogonalLoop=1;jettySize=auto;html=1;endArrow=none;endFill=0;fillColor=#fff2cc;strokeColor=#d6b656;" edge="1" parent="i4TxU1IBVAhbJ-KxuAWe-377" source="i4TxU1IBVAhbJ-KxuAWe-387" target="i4TxU1IBVAhbJ-KxuAWe-389">
          <mxGeometry relative="1" as="geometry" />
        </mxCell>
        <mxCell id="i4TxU1IBVAhbJ-KxuAWe-385" style="rounded=0;orthogonalLoop=1;jettySize=auto;html=1;exitX=0;exitY=1;exitDx=0;exitDy=0;endArrow=none;endFill=0;fillColor=#fff2cc;strokeColor=#d6b656;" edge="1" parent="i4TxU1IBVAhbJ-KxuAWe-377" source="i4TxU1IBVAhbJ-KxuAWe-387" target="i4TxU1IBVAhbJ-KxuAWe-380">
          <mxGeometry relative="1" as="geometry" />
        </mxCell>
        <mxCell id="i4TxU1IBVAhbJ-KxuAWe-386" style="edgeStyle=orthogonalEdgeStyle;rounded=0;orthogonalLoop=1;jettySize=auto;html=1;endArrow=none;endFill=0;fillColor=#fff2cc;strokeColor=#d6b656;" edge="1" parent="i4TxU1IBVAhbJ-KxuAWe-377" source="i4TxU1IBVAhbJ-KxuAWe-387" target="i4TxU1IBVAhbJ-KxuAWe-391">
          <mxGeometry relative="1" as="geometry" />
        </mxCell>
        <mxCell id="i4TxU1IBVAhbJ-KxuAWe-387" value="3" style="ellipse;whiteSpace=wrap;html=1;aspect=fixed;strokeColor=#d6b656;fillColor=#fff2cc;" vertex="1" parent="i4TxU1IBVAhbJ-KxuAWe-377">
          <mxGeometry x="80" width="40" height="40" as="geometry" />
        </mxCell>
        <mxCell id="i4TxU1IBVAhbJ-KxuAWe-388" style="edgeStyle=orthogonalEdgeStyle;rounded=0;orthogonalLoop=1;jettySize=auto;html=1;endArrow=none;endFill=0;fillColor=#fff2cc;strokeColor=#d6b656;" edge="1" parent="i4TxU1IBVAhbJ-KxuAWe-377" source="i4TxU1IBVAhbJ-KxuAWe-389" target="i4TxU1IBVAhbJ-KxuAWe-394">
          <mxGeometry relative="1" as="geometry" />
        </mxCell>
        <mxCell id="i4TxU1IBVAhbJ-KxuAWe-389" value="3" style="ellipse;whiteSpace=wrap;html=1;aspect=fixed;strokeColor=#d6b656;fillColor=#fff2cc;" vertex="1" parent="i4TxU1IBVAhbJ-KxuAWe-377">
          <mxGeometry x="200" width="40" height="40" as="geometry" />
        </mxCell>
        <mxCell id="i4TxU1IBVAhbJ-KxuAWe-390" style="rounded=0;orthogonalLoop=1;jettySize=auto;html=1;endArrow=none;endFill=0;fillColor=#fff2cc;strokeColor=#d6b656;" edge="1" parent="i4TxU1IBVAhbJ-KxuAWe-377" source="i4TxU1IBVAhbJ-KxuAWe-391" target="i4TxU1IBVAhbJ-KxuAWe-381">
          <mxGeometry relative="1" as="geometry" />
        </mxCell>
        <mxCell id="i4TxU1IBVAhbJ-KxuAWe-391" value="3" style="ellipse;whiteSpace=wrap;html=1;aspect=fixed;strokeColor=#d6b656;fillColor=#fff2cc;" vertex="1" parent="i4TxU1IBVAhbJ-KxuAWe-377">
          <mxGeometry x="80" y="120" width="40" height="40" as="geometry" />
        </mxCell>
        <mxCell id="i4TxU1IBVAhbJ-KxuAWe-392" style="rounded=0;orthogonalLoop=1;jettySize=auto;html=1;endArrow=none;endFill=0;fillColor=#fff2cc;strokeColor=#d6b656;" edge="1" parent="i4TxU1IBVAhbJ-KxuAWe-377" source="i4TxU1IBVAhbJ-KxuAWe-394" target="i4TxU1IBVAhbJ-KxuAWe-383">
          <mxGeometry relative="1" as="geometry" />
        </mxCell>
        <mxCell id="i4TxU1IBVAhbJ-KxuAWe-393" style="edgeStyle=orthogonalEdgeStyle;rounded=0;orthogonalLoop=1;jettySize=auto;html=1;endArrow=none;endFill=0;fillColor=#fff2cc;strokeColor=#d6b656;" edge="1" parent="i4TxU1IBVAhbJ-KxuAWe-377" source="i4TxU1IBVAhbJ-KxuAWe-394" target="i4TxU1IBVAhbJ-KxuAWe-391">
          <mxGeometry relative="1" as="geometry" />
        </mxCell>
        <mxCell id="i4TxU1IBVAhbJ-KxuAWe-394" value="3" style="ellipse;whiteSpace=wrap;html=1;aspect=fixed;strokeColor=#d6b656;fillColor=#fff2cc;" vertex="1" parent="i4TxU1IBVAhbJ-KxuAWe-377">
          <mxGeometry x="200" y="120" width="40" height="40" as="geometry" />
        </mxCell>
        <mxCell id="i4TxU1IBVAhbJ-KxuAWe-395" style="rounded=0;orthogonalLoop=1;jettySize=auto;html=1;endArrow=none;endFill=0;fillColor=#fff2cc;strokeColor=#d6b656;" edge="1" parent="i4TxU1IBVAhbJ-KxuAWe-377" source="i4TxU1IBVAhbJ-KxuAWe-397" target="i4TxU1IBVAhbJ-KxuAWe-389">
          <mxGeometry relative="1" as="geometry" />
        </mxCell>
        <mxCell id="i4TxU1IBVAhbJ-KxuAWe-396" style="edgeStyle=orthogonalEdgeStyle;rounded=0;orthogonalLoop=1;jettySize=auto;html=1;endArrow=none;endFill=0;fillColor=#fff2cc;strokeColor=#d6b656;" edge="1" parent="i4TxU1IBVAhbJ-KxuAWe-377" source="i4TxU1IBVAhbJ-KxuAWe-397" target="i4TxU1IBVAhbJ-KxuAWe-383">
          <mxGeometry relative="1" as="geometry" />
        </mxCell>
        <mxCell id="i4TxU1IBVAhbJ-KxuAWe-397" value="3" style="ellipse;whiteSpace=wrap;html=1;aspect=fixed;fillColor=#fff2cc;strokeColor=#d6b656;" vertex="1" parent="i4TxU1IBVAhbJ-KxuAWe-377">
          <mxGeometry x="120" y="80" width="40" height="40" as="geometry" />
        </mxCell>
      </root>
    </mxGraphModel>
  </diagram>
</mxfile>
